{
	"patcher" : 	{
		"fileversion" : 1,
		"appversion" : 		{
			"major" : 8,
			"minor" : 2,
			"revision" : 2,
			"architecture" : "x64",
			"modernui" : 1
		}
,
		"classnamespace" : "box",
		"rect" : [ 34.0, 79.0, 468.0, 758.0 ],
		"bglocked" : 0,
		"openinpresentation" : 1,
		"default_fontsize" : 12.0,
		"default_fontface" : 0,
		"default_fontname" : "Arial",
		"gridonopen" : 1,
		"gridsize" : [ 15.0, 15.0 ],
		"gridsnaponopen" : 1,
		"objectsnaponopen" : 1,
		"statusbarvisible" : 2,
		"toolbarvisible" : 1,
		"lefttoolbarpinned" : 0,
		"toptoolbarpinned" : 0,
		"righttoolbarpinned" : 0,
		"bottomtoolbarpinned" : 0,
		"toolbars_unpinned_last_save" : 0,
		"tallnewobj" : 0,
		"boxanimatetime" : 200,
		"enablehscroll" : 1,
		"enablevscroll" : 1,
		"devicewidth" : 0.0,
		"description" : "",
		"digest" : "",
		"tags" : "",
		"style" : "",
		"subpatcher_template" : "",
		"assistshowspatchername" : 0,
		"boxes" : [ 			{
				"box" : 				{
					"id" : "obj-20",
					"maxclass" : "newobj",
					"numinlets" : 4,
					"numoutlets" : 2,
					"outlettype" : [ "jit_matrix", "" ],
					"patching_rect" : [ 190.0, 870.0, 100.0, 22.0 ],
					"text" : "jit.pack 4"
				}

			}
, 			{
				"box" : 				{
					"fontname" : "Arial",
					"fontsize" : 11.595186999999999,
					"id" : "obj-17",
					"maxclass" : "newobj",
					"numinlets" : 3,
					"numoutlets" : 2,
					"outlettype" : [ "jit_matrix", "" ],
					"patching_rect" : [ 117.385481978873941, 854.180959369548646, 56.0, 21.0 ],
					"text" : "jit.pack 3"
				}

			}
, 			{
				"box" : 				{
					"id" : "obj-112",
					"maxclass" : "button",
					"numinlets" : 1,
					"numoutlets" : 1,
					"outlettype" : [ "bang" ],
					"parameter_enable" : 0,
					"patching_rect" : [ 695.075261082088446, 686.0, 45.924738917911554, 45.924738917911554 ]
				}

			}
, 			{
				"box" : 				{
					"id" : "obj-105",
					"maxclass" : "newobj",
					"numinlets" : 1,
					"numoutlets" : 1,
					"outlettype" : [ "" ],
					"patching_rect" : [ 632.575261082088446, 1172.346349398220354, 100.0, 22.0 ],
					"text" : "o.accum"
				}

			}
, 			{
				"box" : 				{
					"fontface" : 0,
					"id" : "obj-104",
					"linecount" : 3,
					"maxclass" : "o.display",
					"numinlets" : 1,
					"numoutlets" : 1,
					"outlettype" : [ "" ],
					"patching_rect" : [ 648.075261082088446, 1221.346349398220354, 476.0, 59.0 ],
					"presentation" : 1,
					"presentation_linecount" : 3,
					"presentation_rect" : [ 7.479689978873921, 637.278657269780979, 445.094207999999981, 59.0 ],
					"text" : "/objectUpdate : [3476, 0.855, -2.13211, 4.168, 0.889],\n/objectStart : [3478, 0, 0, 0.855, -0.282247, -5.876, 0.889],\n/objectEnd : 3478"
				}

			}
, 			{
				"box" : 				{
					"id" : "obj-101",
					"maxclass" : "newobj",
					"numinlets" : 1,
					"numoutlets" : 0,
					"patching_rect" : [ 427.075261082088446, 1234.846349398220354, 184.0, 22.0 ],
					"presentation" : 1,
					"presentation_rect" : [ 264.479689978873921, 704.278657269780979, 188.094207999999981, 22.0 ],
					"text" : "udpsend 255.255.255.255 7000"
				}

			}
, 			{
				"box" : 				{
					"id" : "obj-100",
					"maxclass" : "newobj",
					"numinlets" : 1,
					"numoutlets" : 3,
					"outlettype" : [ "", "", "OSCTimeTag" ],
					"patching_rect" : [ 440.075261082088446, 1172.346349398220354, 176.0, 22.0 ],
					"text" : "OpenSoundControl 2056"
				}

			}
, 			{
				"box" : 				{
					"id" : "obj-86",
					"maxclass" : "newobj",
					"numinlets" : 0,
					"numoutlets" : 1,
					"outlettype" : [ "" ],
					"patching_rect" : [ 550.150522082088401, 1091.346349398220354, 100.0, 22.0 ],
					"text" : "r #0-params"
				}

			}
, 			{
				"box" : 				{
					"id" : "obj-88",
					"maxclass" : "newobj",
					"numinlets" : 2,
					"numoutlets" : 1,
					"outlettype" : [ "FullPacket" ],
					"patcher" : 					{
						"fileversion" : 1,
						"appversion" : 						{
							"major" : 8,
							"minor" : 2,
							"revision" : 2,
							"architecture" : "x64",
							"modernui" : 1
						}
,
						"classnamespace" : "box",
						"rect" : [ 59.0, 104.0, 1085.0, 642.0 ],
						"bglocked" : 0,
						"openinpresentation" : 0,
						"default_fontsize" : 12.0,
						"default_fontface" : 0,
						"default_fontname" : "Arial",
						"gridonopen" : 1,
						"gridsize" : [ 15.0, 15.0 ],
						"gridsnaponopen" : 1,
						"objectsnaponopen" : 1,
						"statusbarvisible" : 2,
						"toolbarvisible" : 1,
						"lefttoolbarpinned" : 0,
						"toptoolbarpinned" : 0,
						"righttoolbarpinned" : 0,
						"bottomtoolbarpinned" : 0,
						"toolbars_unpinned_last_save" : 0,
						"tallnewobj" : 0,
						"boxanimatetime" : 200,
						"enablehscroll" : 1,
						"enablevscroll" : 1,
						"devicewidth" : 0.0,
						"description" : "",
						"digest" : "",
						"tags" : "",
						"style" : "",
						"subpatcher_template" : "",
						"assistshowspatchername" : 0,
						"boxes" : [ 							{
								"box" : 								{
									"id" : "obj-90",
									"maxclass" : "newobj",
									"numinlets" : 2,
									"numoutlets" : 1,
									"outlettype" : [ "FullPacket" ],
									"patching_rect" : [ 389.0, 1048.0, 100.0, 22.0 ],
									"text" : "o.downcast"
								}

							}
, 							{
								"box" : 								{
									"comment" : "",
									"id" : "obj-2",
									"index" : 1,
									"maxclass" : "outlet",
									"numinlets" : 1,
									"numoutlets" : 0,
									"patching_rect" : [ 389.0, 1103.0, 30.0, 30.0 ]
								}

							}
, 							{
								"box" : 								{
									"comment" : "",
									"id" : "obj-1",
									"index" : 2,
									"maxclass" : "inlet",
									"numinlets" : 0,
									"numoutlets" : 1,
									"outlettype" : [ "" ],
									"patching_rect" : [ 668.0, 94.0, 30.0, 30.0 ]
								}

							}
, 							{
								"box" : 								{
									"id" : "obj-84",
									"linecount" : 2,
									"maxclass" : "newobj",
									"numinlets" : 1,
									"numoutlets" : 2,
									"outlettype" : [ "", "FullPacket" ],
									"patching_rect" : [ 374.075261082088446, 983.0, 100.0, 35.0 ],
									"text" : "o.select /objectStart"
								}

							}
, 							{
								"box" : 								{
									"id" : "obj-82",
									"linecount" : 2,
									"maxclass" : "newobj",
									"numinlets" : 1,
									"numoutlets" : 2,
									"outlettype" : [ "", "FullPacket" ],
									"patching_rect" : [ 178.075261082088446, 990.0, 100.0, 35.0 ],
									"text" : "o.select /objectEnd"
								}

							}
, 							{
								"box" : 								{
									"id" : "obj-76",
									"linecount" : 2,
									"maxclass" : "newobj",
									"numinlets" : 1,
									"numoutlets" : 2,
									"outlettype" : [ "", "FullPacket" ],
									"patching_rect" : [ 551.075261082088446, 979.0, 100.0, 35.0 ],
									"text" : "o.select /objectUpdate"
								}

							}
, 							{
								"box" : 								{
									"fontface" : 0,
									"id" : "obj-71",
									"linecount" : 2,
									"maxclass" : "o.expr.codebox",
									"numinlets" : 1,
									"numoutlets" : 2,
									"outlettype" : [ "FullPacket", "FullPacket" ],
									"patching_rect" : [ 374.075261082088446, 872.0, 554.0, 44.0 ],
									"text" : " /objectUpdate = [ value(\"/objectid\"), value(\"/gain\"), value(\"/px\"), value(\"/py\"), value(\"/radius\") ]"
								}

							}
, 							{
								"box" : 								{
									"fontface" : 0,
									"id" : "obj-70",
									"maxclass" : "o.expr.codebox",
									"numinlets" : 1,
									"numoutlets" : 2,
									"outlettype" : [ "FullPacket", "FullPacket" ],
									"patching_rect" : [ 204.075261082088446, 818.016356788539269, 554.0, 31.0 ],
									"text" : " /objectEnd = [ value(\"/objectid\") ]"
								}

							}
, 							{
								"box" : 								{
									"fontface" : 0,
									"id" : "obj-68",
									"linecount" : 10,
									"maxclass" : "o.expr.codebox",
									"numinlets" : 1,
									"numoutlets" : 2,
									"outlettype" : [ "FullPacket", "FullPacket" ],
									"patching_rect" : [ 654.0, 446.516356788539269, 306.0, 147.0 ],
									"text" : "/objectid = int64(/objectUpdate[[0]]),\n/life = int64(/objectUpdate[[1]]),\n/px = /objectUpdate[[2]],\n/py = /objectUpdate[[3]],\n/pz = /objectUpdate[[4]],\n/vx = /objectUpdate[[5]],\n/vy = /objectUpdate[[6]],\n/vz = /objectUpdate[[7]],\n/gain = /objectUpdate[[8]],\n/radius = /objectUpdate[[9]]"
								}

							}
, 							{
								"box" : 								{
									"fontface" : 0,
									"id" : "obj-67",
									"linecount" : 10,
									"maxclass" : "o.expr.codebox",
									"numinlets" : 1,
									"numoutlets" : 2,
									"outlettype" : [ "FullPacket", "FullPacket" ],
									"patching_rect" : [ 221.075261082088446, 423.516356788539269, 306.0, 147.0 ],
									"text" : "/objectid = int64(/objectStart[[0]]),\n/life = int64(/objectStart[[1]]),\n/px = /objectStart[[2]],\n/py = /objectStart[[3]],\n/pz = /objectStart[[4]],\n/vx = /objectStart[[5]],\n/vy = /objectStart[[6]],\n/vz = /objectStart[[7]],\n/gain = /objectStart[[8]],\n/radius = /objectStart[[9]]"
								}

							}
, 							{
								"box" : 								{
									"fontface" : 0,
									"id" : "obj-64",
									"linecount" : 10,
									"maxclass" : "o.expr.codebox",
									"numinlets" : 1,
									"numoutlets" : 2,
									"outlettype" : [ "FullPacket", "FullPacket" ],
									"patching_rect" : [ 50.0, 455.516356788539269, 306.0, 147.0 ],
									"text" : "/objectid = int64(/objectEnd[[0]]),\n/life = int64(/objectEnd[[1]]),\n/px = /objectEnd[[2]],\n/py = /objectEnd[[3]],\n/pz = /objectEnd[[4]],\n/vx = /objectEnd[[5]],\n/vy = /objectEnd[[6]],\n/vz = /objectEnd[[7]],\n/gain = /objectEnd[[8]],\n/radius = /objectEnd[[9]]"
								}

							}
, 							{
								"box" : 								{
									"fontface" : 0,
									"id" : "obj-57",
									"linecount" : 3,
									"maxclass" : "o.expr.codebox",
									"numinlets" : 1,
									"numoutlets" : 2,
									"outlettype" : [ "FullPacket", "FullPacket" ],
									"patching_rect" : [ 311.075261082088446, 748.0, 554.0, 57.0 ],
									"text" : " /objectStart = [ value(\"/objectid\"), value(\"/voiceslotid\"), value(\"/recordingid\"), value(\"/gain\"), value(\"/px\"), value(\"/py\"), value(\"/radius\") ]"
								}

							}
, 							{
								"box" : 								{
									"id" : "obj-55",
									"maxclass" : "newobj",
									"numinlets" : 2,
									"numoutlets" : 1,
									"outlettype" : [ "FullPacket" ],
									"patching_rect" : [ 427.075261082088446, 703.0, 100.0, 22.0 ],
									"text" : "o.union"
								}

							}
, 							{
								"box" : 								{
									"id" : "obj-54",
									"maxclass" : "newobj",
									"numinlets" : 2,
									"numoutlets" : 1,
									"outlettype" : [ "FullPacket" ],
									"patching_rect" : [ 311.075261082088446, 703.0, 100.0, 22.0 ],
									"text" : "o.union"
								}

							}
, 							{
								"box" : 								{
									"id" : "obj-51",
									"maxclass" : "newobj",
									"numinlets" : 2,
									"numoutlets" : 1,
									"outlettype" : [ "FullPacket" ],
									"patching_rect" : [ 204.075261082088446, 703.0, 100.0, 22.0 ],
									"text" : "o.union"
								}

							}
, 							{
								"box" : 								{
									"id" : "obj-47",
									"linecount" : 2,
									"maxclass" : "newobj",
									"numinlets" : 1,
									"numoutlets" : 1,
									"outlettype" : [ "FullPacket" ],
									"patching_rect" : [ 387.075261082088446, 355.604849843037755, 100.0, 35.0 ],
									"text" : "o.pack /objectUpdate"
								}

							}
, 							{
								"box" : 								{
									"id" : "obj-41",
									"linecount" : 2,
									"maxclass" : "newobj",
									"numinlets" : 1,
									"numoutlets" : 1,
									"outlettype" : [ "FullPacket" ],
									"patching_rect" : [ 285.075261082088446, 355.604849843037755, 100.0, 35.0 ],
									"text" : "o.pack /objectStart"
								}

							}
, 							{
								"box" : 								{
									"id" : "obj-39",
									"linecount" : 2,
									"maxclass" : "newobj",
									"numinlets" : 1,
									"numoutlets" : 1,
									"outlettype" : [ "FullPacket" ],
									"patching_rect" : [ 183.075261082088446, 355.604849843037755, 100.0, 35.0 ],
									"text" : "o.pack /objectEnd"
								}

							}
, 							{
								"box" : 								{
									"fontface" : 0,
									"id" : "obj-35",
									"linecount" : 3,
									"maxclass" : "o.display",
									"numinlets" : 1,
									"numoutlets" : 1,
									"outlettype" : [ "" ],
									"patching_rect" : [ 532.075261082088446, 305.0, 197.0, 59.0 ],
									"text" : "/params : [0, 0, 1., 1.],\n/voiceslotid : 0,\n/recordingid : 0"
								}

							}
, 							{
								"box" : 								{
									"fontface" : 0,
									"id" : "obj-32",
									"linecount" : 2,
									"maxclass" : "o.expr.codebox",
									"numinlets" : 1,
									"numoutlets" : 2,
									"outlettype" : [ "FullPacket", "FullPacket" ],
									"patching_rect" : [ 532.075261082088446, 202.167934147979395, 270.0, 44.0 ],
									"text" : "/voiceslotid = /params[[0]],\n/recordingid = /params[[1]]"
								}

							}
, 							{
								"box" : 								{
									"fontface" : 0,
									"id" : "obj-31",
									"maxclass" : "o.display",
									"numinlets" : 1,
									"numoutlets" : 1,
									"outlettype" : [ "" ],
									"patching_rect" : [ 532.075261082088446, 155.0, 197.0, 33.0 ],
									"text" : "/params : [0, 0, 1., 1.]"
								}

							}
, 							{
								"box" : 								{
									"id" : "obj-13",
									"maxclass" : "newobj",
									"numinlets" : 1,
									"numoutlets" : 1,
									"outlettype" : [ "FullPacket" ],
									"patching_rect" : [ 532.075261082088446, 129.242143656278131, 100.0, 22.0 ],
									"text" : "o.pack /params"
								}

							}
, 							{
								"box" : 								{
									"id" : "obj-12",
									"maxclass" : "newobj",
									"numinlets" : 4,
									"numoutlets" : 4,
									"outlettype" : [ "", "", "", "" ],
									"patching_rect" : [ 183.075261082088446, 321.181746817210978, 278.0, 22.0 ],
									"text" : "route /objectEnd /objectStart /objectUpdate"
								}

							}
, 							{
								"box" : 								{
									"comment" : "",
									"id" : "obj-87",
									"index" : 1,
									"maxclass" : "inlet",
									"numinlets" : 0,
									"numoutlets" : 1,
									"outlettype" : [ "" ],
									"patching_rect" : [ 183.075256000000024, 40.0, 30.0, 30.0 ]
								}

							}
 ],
						"lines" : [ 							{
								"patchline" : 								{
									"destination" : [ "obj-13", 0 ],
									"source" : [ "obj-1", 0 ]
								}

							}
, 							{
								"patchline" : 								{
									"destination" : [ "obj-39", 0 ],
									"source" : [ "obj-12", 0 ]
								}

							}
, 							{
								"patchline" : 								{
									"destination" : [ "obj-41", 0 ],
									"source" : [ "obj-12", 1 ]
								}

							}
, 							{
								"patchline" : 								{
									"destination" : [ "obj-47", 0 ],
									"source" : [ "obj-12", 2 ]
								}

							}
, 							{
								"patchline" : 								{
									"destination" : [ "obj-31", 0 ],
									"source" : [ "obj-13", 0 ]
								}

							}
, 							{
								"patchline" : 								{
									"destination" : [ "obj-32", 0 ],
									"source" : [ "obj-31", 0 ]
								}

							}
, 							{
								"patchline" : 								{
									"destination" : [ "obj-35", 0 ],
									"source" : [ "obj-32", 0 ]
								}

							}
, 							{
								"patchline" : 								{
									"destination" : [ "obj-51", 1 ],
									"order" : 2,
									"source" : [ "obj-35", 0 ]
								}

							}
, 							{
								"patchline" : 								{
									"destination" : [ "obj-54", 1 ],
									"order" : 1,
									"source" : [ "obj-35", 0 ]
								}

							}
, 							{
								"patchline" : 								{
									"destination" : [ "obj-55", 1 ],
									"order" : 0,
									"source" : [ "obj-35", 0 ]
								}

							}
, 							{
								"patchline" : 								{
									"destination" : [ "obj-64", 0 ],
									"source" : [ "obj-39", 0 ]
								}

							}
, 							{
								"patchline" : 								{
									"destination" : [ "obj-67", 0 ],
									"source" : [ "obj-41", 0 ]
								}

							}
, 							{
								"patchline" : 								{
									"destination" : [ "obj-68", 0 ],
									"source" : [ "obj-47", 0 ]
								}

							}
, 							{
								"patchline" : 								{
									"destination" : [ "obj-70", 0 ],
									"source" : [ "obj-51", 0 ]
								}

							}
, 							{
								"patchline" : 								{
									"destination" : [ "obj-57", 0 ],
									"source" : [ "obj-54", 0 ]
								}

							}
, 							{
								"patchline" : 								{
									"destination" : [ "obj-71", 0 ],
									"source" : [ "obj-55", 0 ]
								}

							}
, 							{
								"patchline" : 								{
									"destination" : [ "obj-84", 0 ],
									"source" : [ "obj-57", 0 ]
								}

							}
, 							{
								"patchline" : 								{
									"destination" : [ "obj-51", 0 ],
									"source" : [ "obj-64", 0 ]
								}

							}
, 							{
								"patchline" : 								{
									"destination" : [ "obj-54", 0 ],
									"source" : [ "obj-67", 0 ]
								}

							}
, 							{
								"patchline" : 								{
									"destination" : [ "obj-55", 0 ],
									"source" : [ "obj-68", 0 ]
								}

							}
, 							{
								"patchline" : 								{
									"destination" : [ "obj-82", 0 ],
									"source" : [ "obj-70", 0 ]
								}

							}
, 							{
								"patchline" : 								{
									"destination" : [ "obj-76", 0 ],
									"source" : [ "obj-71", 0 ]
								}

							}
, 							{
								"patchline" : 								{
									"destination" : [ "obj-90", 0 ],
									"source" : [ "obj-76", 0 ]
								}

							}
, 							{
								"patchline" : 								{
									"destination" : [ "obj-90", 0 ],
									"source" : [ "obj-82", 0 ]
								}

							}
, 							{
								"patchline" : 								{
									"destination" : [ "obj-90", 0 ],
									"source" : [ "obj-84", 0 ]
								}

							}
, 							{
								"patchline" : 								{
									"destination" : [ "obj-12", 0 ],
									"source" : [ "obj-87", 0 ]
								}

							}
, 							{
								"patchline" : 								{
									"destination" : [ "obj-2", 0 ],
									"source" : [ "obj-90", 0 ]
								}

							}
 ]
					}
,
					"patching_rect" : [ 440.075261082088446, 1131.346349398220354, 108.075260999999955, 22.0 ],
					"saved_object_attributes" : 					{
						"description" : "",
						"digest" : "",
						"globalpatchername" : "",
						"tags" : ""
					}
,
					"text" : "p OSC-create"
				}

			}
, 			{
				"box" : 				{
					"id" : "obj-85",
					"maxclass" : "newobj",
					"numinlets" : 1,
					"numoutlets" : 0,
					"patching_rect" : [ 773.075261082088446, 753.0, 100.0, 22.0 ],
					"text" : "s #0-params"
				}

			}
, 			{
				"box" : 				{
					"id" : "obj-61",
					"linecount" : 2,
					"maxclass" : "comment",
					"numinlets" : 1,
					"numoutlets" : 0,
					"patching_rect" : [ 542.075261082088446, 1047.362706186759624, 135.0, 33.0 ],
					"text" : "id life px py pz vx vy vz gain radius"
				}

			}
, 			{
				"box" : 				{
					"id" : "obj-60",
					"linecount" : 2,
					"maxclass" : "comment",
					"numinlets" : 1,
					"numoutlets" : 0,
					"patching_rect" : [ 470.573897978873902, 672.271088316131909, 135.0, 33.0 ],
					"text" : "id life px py pz vx vy vz gain radius"
				}

			}
, 			{
				"box" : 				{
					"bgcolor" : [ 1.0, 1.0, 1.0, 1.0 ],
					"id" : "obj-29",
					"maxclass" : "comment",
					"numinlets" : 1,
					"numoutlets" : 0,
					"patching_rect" : [ 531.0, 217.0, 150.0, 20.0 ],
					"presentation" : 1,
					"presentation_rect" : [ 7.479689978873921, 20.609437327124397, 62.924738917911554, 20.0 ],
					"text" : "camera"
				}

			}
, 			{
				"box" : 				{
					"id" : "obj-22",
					"maxclass" : "message",
					"numinlets" : 2,
					"numoutlets" : 1,
					"outlettype" : [ "" ],
					"patching_rect" : [ 90.479689978873921, 112.0, 186.0, 22.0 ],
					"presentation" : 1,
					"presentation_rect" : [ 225.573897978873902, 87.444047298452688, 37.0, 22.0 ],
					"text" : "read"
				}

			}
, 			{
				"box" : 				{
					"bgcolor" : [ 1.0, 1.0, 1.0, 1.0 ],
					"id" : "obj-19",
					"maxclass" : "comment",
					"numinlets" : 1,
					"numoutlets" : 0,
					"patching_rect" : [ 466.075261082088446, 889.588493054498485, 150.0, 20.0 ],
					"presentation" : 1,
					"presentation_rect" : [ 7.479689978873921, 647.757856343721869, 51.0, 20.0 ],
					"text" : "velocity"
				}

			}
, 			{
				"box" : 				{
					"bgcolor" : [ 1.0, 1.0, 1.0, 1.0 ],
					"id" : "obj-18",
					"maxclass" : "comment",
					"numinlets" : 1,
					"numoutlets" : 0,
					"patching_rect" : [ 454.875262196695303, 958.588493054498485, 150.0, 20.0 ],
					"presentation" : 1,
					"presentation_rect" : [ 7.479689978873921, 616.0, 51.0, 20.0 ],
					"text" : "position"
				}

			}
, 			{
				"box" : 				{
					"id" : "obj-15",
					"maxclass" : "newobj",
					"numinlets" : 1,
					"numoutlets" : 1,
					"outlettype" : [ "bang" ],
					"patching_rect" : [ 695.075261082088446, 659.0, 100.0, 22.0 ],
					"text" : "loadbang"
				}

			}
, 			{
				"box" : 				{
					"id" : "obj-46",
					"maxclass" : "newobj",
					"numinlets" : 2,
					"numoutlets" : 1,
					"outlettype" : [ "int" ],
					"patching_rect" : [ 773.075261082088446, 623.0, 31.0, 22.0 ],
					"text" : "% 4"
				}

			}
, 			{
				"box" : 				{
					"bgcolor" : [ 1.0, 1.0, 1.0, 1.0 ],
					"id" : "obj-43",
					"maxclass" : "comment",
					"numinlets" : 1,
					"numoutlets" : 0,
					"patching_rect" : [ 797.575261082088446, 532.0, 74.0, 20.0 ],
					"presentation" : 1,
					"presentation_rect" : [ 7.479689978873921, 88.444047298452688, 74.0, 20.0 ],
					"text" : "recording id"
				}

			}
, 			{
				"box" : 				{
					"bgcolor" : [ 1.0, 1.0, 1.0, 1.0 ],
					"id" : "obj-42",
					"maxclass" : "comment",
					"numinlets" : 1,
					"numoutlets" : 0,
					"patching_rect" : [ 715.575261082088446, 566.0, 74.0, 20.0 ],
					"presentation" : 1,
					"presentation_rect" : [ 7.479689978873921, 64.444047298452688, 74.0, 20.0 ],
					"text" : "voiceslot-id"
				}

			}
, 			{
				"box" : 				{
					"id" : "obj-40",
					"maxclass" : "number",
					"numinlets" : 1,
					"numoutlets" : 2,
					"outlettype" : [ "", "bang" ],
					"parameter_enable" : 0,
					"patching_rect" : [ 813.075261082088446, 559.0, 50.0, 22.0 ],
					"presentation" : 1,
					"presentation_rect" : [ 84.573897978873902, 88.444047298452688, 50.0, 22.0 ]
				}

			}
, 			{
				"box" : 				{
					"id" : "obj-38",
					"maxclass" : "number",
					"numinlets" : 1,
					"numoutlets" : 2,
					"outlettype" : [ "", "bang" ],
					"parameter_enable" : 0,
					"patching_rect" : [ 773.075261082088446, 588.0, 50.0, 22.0 ],
					"presentation" : 1,
					"presentation_rect" : [ 84.573897978873902, 64.444047298452688, 50.0, 22.0 ]
				}

			}
, 			{
				"box" : 				{
					"id" : "obj-30",
					"maxclass" : "newobj",
					"numinlets" : 4,
					"numoutlets" : 1,
					"outlettype" : [ "" ],
					"patching_rect" : [ 773.075261082088446, 721.0, 100.0, 22.0 ],
					"text" : "pak 0 0 1. 1."
				}

			}
, 			{
				"box" : 				{
					"id" : "obj-26",
					"linecount" : 4,
					"maxclass" : "comment",
					"numinlets" : 1,
					"numoutlets" : 0,
					"patching_rect" : [ 1121.075261082088446, 1445.016356788539269, 150.0, 74.0 ],
					"text" : "/objectStart sound-object-id voice-slot recording-id volume x y radius\n"
				}

			}
, 			{
				"box" : 				{
					"id" : "obj-14",
					"maxclass" : "jit.pwindow",
					"numinlets" : 1,
					"numoutlets" : 2,
					"outlettype" : [ "jit_matrix", "" ],
					"patching_rect" : [ 386.475258852874731, 911.588493054498485, 229.600002229213715, 17.851580983402528 ],
					"presentation" : 1,
					"presentation_rect" : [ 7.479689978873921, 599.59246631505016, 445.094207999999981, 29.757856343721869 ],
					"sync" : 1
				}

			}
, 			{
				"box" : 				{
					"fontname" : "Arial",
					"fontsize" : 11.595186999999999,
					"id" : "obj-8",
					"maxclass" : "newobj",
					"numinlets" : 3,
					"numoutlets" : 2,
					"outlettype" : [ "jit_matrix", "" ],
					"patching_rect" : [ 386.475258852874731, 859.180959369548646, 56.0, 21.0 ],
					"text" : "jit.pack 3"
				}

			}
, 			{
				"box" : 				{
					"id" : "obj-6",
					"maxclass" : "newobj",
					"numinlets" : 0,
					"numoutlets" : 1,
					"outlettype" : [ "" ],
					"patching_rect" : [ 440.075261082088446, 1047.362706186759624, 100.0, 22.0 ],
					"text" : "r particles-01"
				}

			}
, 			{
				"box" : 				{
					"id" : "obj-2",
					"maxclass" : "newobj",
					"numinlets" : 1,
					"numoutlets" : 0,
					"patching_rect" : [ 427.075261082088446, 709.924738917911554, 100.0, 22.0 ],
					"text" : "s particles-01"
				}

			}
, 			{
				"box" : 				{
					"id" : "obj-10",
					"maxclass" : "newobj",
					"numinlets" : 1,
					"numoutlets" : 1,
					"outlettype" : [ "bang" ],
					"patching_rect" : [ 56.479689978873921, 30.0, 100.0, 22.0 ],
					"text" : "loadbang"
				}

			}
, 			{
				"box" : 				{
					"id" : "obj-3",
					"maxclass" : "newobj",
					"numinlets" : 1,
					"numoutlets" : 1,
					"outlettype" : [ "bang" ],
					"patching_rect" : [ 547.696379626678436, 344.0, 100.0, 22.0 ],
					"text" : "loadbang"
				}

			}
, 			{
				"box" : 				{
					"id" : "obj-5",
					"maxclass" : "message",
					"numinlets" : 2,
					"numoutlets" : 1,
					"outlettype" : [ "" ],
					"patching_rect" : [ 65.479689978873921, 61.0, 186.0, 22.0 ],
					"presentation" : 1,
					"presentation_rect" : [ 266.573897978873902, 87.444047298452688, 186.0, 22.0 ],
					"text" : "read presets01.maxpresets, 1"
				}

			}
, 			{
				"box" : 				{
					"id" : "obj-4",
					"maxclass" : "message",
					"numinlets" : 2,
					"numoutlets" : 1,
					"outlettype" : [ "" ],
					"patching_rect" : [ 73.479689978873921, 88.0, 186.0, 22.0 ],
					"presentation" : 1,
					"presentation_rect" : [ 186.573897978873902, 87.444047298452688, 37.0, 22.0 ],
					"text" : "write"
				}

			}
, 			{
				"box" : 				{
					"id" : "obj-24",
					"maxclass" : "newobj",
					"numinlets" : 1,
					"numoutlets" : 1,
					"outlettype" : [ "bang" ],
					"patching_rect" : [ 817.0, 411.125786301065091, 100.0, 22.0 ],
					"text" : "loadbang"
				}

			}
, 			{
				"box" : 				{
					"id" : "obj-23",
					"linecount" : 2,
					"maxclass" : "message",
					"numinlets" : 2,
					"numoutlets" : 1,
					"outlettype" : [ "" ],
					"patching_rect" : [ 821.0, 435.125786301065091, 53.0, 35.0 ],
					"text" : "position 0. 0. 6."
				}

			}
, 			{
				"box" : 				{
					"id" : "obj-276",
					"maxclass" : "newobj",
					"numinlets" : 1,
					"numoutlets" : 2,
					"outlettype" : [ "jit_gl_texture", "" ],
					"patching_rect" : [ 808.075261582088388, 478.367936904830003, 100.0, 22.0 ],
					"text" : "jit.gl.camera"
				}

			}
, 			{
				"box" : 				{
					"id" : "obj-272",
					"linecount" : 2,
					"maxclass" : "newobj",
					"numinlets" : 1,
					"numoutlets" : 3,
					"outlettype" : [ "jit_matrix", "bang", "" ],
					"patching_rect" : [ 552.096378708766906, 431.999993052513219, 213.0, 35.0 ],
					"text" : "jit.world @fps 10 @enable 1 @sync 0 @size 500 500"
				}

			}
, 			{
				"box" : 				{
					"id" : "obj-265",
					"maxclass" : "jit.pwindow",
					"numinlets" : 1,
					"numoutlets" : 2,
					"outlettype" : [ "jit_matrix", "" ],
					"patching_rect" : [ 375.275259967481588, 980.588493054498485, 229.600002229213715, 17.851580983402528 ],
					"presentation" : 1,
					"presentation_rect" : [ 7.479689978873921, 567.834609971328291, 445.094207999999981, 29.757856343721869 ],
					"sync" : 1
				}

			}
, 			{
				"box" : 				{
					"id" : "obj-264",
					"linecount" : 4,
					"maxclass" : "newobj",
					"numinlets" : 3,
					"numoutlets" : 2,
					"outlettype" : [ "", "" ],
					"patching_rect" : [ 74.385481978873941, 1013.714286514511059, 100.0, 62.0 ],
					"text" : "jit.gl.multiple 3 @glparams position scale color"
				}

			}
, 			{
				"box" : 				{
					"id" : "obj-263",
					"linecount" : 6,
					"maxclass" : "newobj",
					"numinlets" : 1,
					"numoutlets" : 2,
					"outlettype" : [ "jit_matrix", "" ],
					"patching_rect" : [ 74.385481978873941, 1091.346349398220354, 103.0, 89.0 ],
					"text" : "jit.gl.gridshape @shape circle @poly_mode 1 1 @dim 18 1 @cull_face 1 @line_width 2."
				}

			}
, 			{
				"box" : 				{
					"id" : "obj-132",
					"maxclass" : "message",
					"numinlets" : 2,
					"numoutlets" : 1,
					"outlettype" : [ "" ],
					"patching_rect" : [ 621.44690370876674, 381.367937116290705, 67.350524999999834, 22.0 ],
					"presentation" : 1,
					"presentation_rect" : [ 391.89942643782922, 20.609437327124397, 60.674471541044682, 22.0 ],
					"text" : "floating 0"
				}

			}
, 			{
				"box" : 				{
					"id" : "obj-131",
					"maxclass" : "message",
					"numinlets" : 2,
					"numoutlets" : 1,
					"outlettype" : [ "" ],
					"patching_rect" : [ 552.096378708766906, 381.367937116290705, 67.350524999999834, 22.0 ],
					"presentation" : 1,
					"presentation_rect" : [ 324.548901437829386, 20.609437327124397, 60.674471541044682, 22.0 ],
					"text" : "floating 1"
				}

			}
, 			{
				"box" : 				{
					"id" : "obj-16",
					"maxclass" : "newobj",
					"numinlets" : 1,
					"numoutlets" : 0,
					"patching_rect" : [ 552.096378708766906, 487.242143656278131, 100.0, 22.0 ],
					"text" : "s metro"
				}

			}
, 			{
				"box" : 				{
					"fontname" : "Arial",
					"fontsize" : 11.595186999999999,
					"id" : "obj-73",
					"maxclass" : "newobj",
					"numinlets" : 3,
					"numoutlets" : 2,
					"outlettype" : [ "jit_matrix", "" ],
					"patching_rect" : [ 49.385481978873941, 854.180959369548646, 56.0, 21.0 ],
					"text" : "jit.pack 3"
				}

			}
, 			{
				"box" : 				{
					"fontname" : "Arial",
					"fontsize" : 11.595186999999999,
					"id" : "obj-9",
					"maxclass" : "newobj",
					"numinlets" : 1,
					"numoutlets" : 11,
					"outlettype" : [ "jit_matrix", "jit_matrix", "jit_matrix", "jit_matrix", "jit_matrix", "jit_matrix", "jit_matrix", "jit_matrix", "jit_matrix", "jit_matrix", "" ],
					"patching_rect" : [ 65.529524978873724, 783.847615369548748, 86.5, 21.0 ],
					"text" : "jit.unpack 10"
				}

			}
, 			{
				"box" : 				{
					"fontname" : "Arial",
					"fontsize" : 11.595186999999999,
					"id" : "obj-106",
					"linecount" : 3,
					"maxclass" : "newobj",
					"numinlets" : 1,
					"numoutlets" : 3,
					"outlettype" : [ "jit_matrix", "jit_matrix", "" ],
					"patching_rect" : [ 65.479689978873921, 721.0, 46.0, 47.0 ],
					"text" : "jit.split @splitdim 1"
				}

			}
, 			{
				"box" : 				{
					"bgcolor" : [ 0.258823529411765, 1.0, 0.266666666666667, 1.0 ],
					"bgmode" : 1,
					"border" : 0,
					"clickthrough" : 0,
					"enablehscroll" : 0,
					"enablevscroll" : 0,
					"id" : "obj-1",
					"lockeddragscroll" : 0,
					"lockedsize" : 0,
					"maxclass" : "bpatcher",
					"name" : "system-module.maxpat",
					"numinlets" : 1,
					"numoutlets" : 2,
					"offset" : [ 0.0, 0.0 ],
					"outlettype" : [ "", "" ],
					"patching_rect" : [ 69.479689978873921, 154.436478344803618, 445.094207999999981, 515.834609971328291 ],
					"presentation" : 1,
					"presentation_rect" : [ 7.479689978873921, 119.444047298452688, 445.094207999999981, 444.834609971328291 ],
					"varname" : "system-module",
					"viewvisibility" : 1
				}

			}
, 			{
				"box" : 				{
					"attr" : "position",
					"id" : "obj-7",
					"maxclass" : "attrui",
					"numinlets" : 1,
					"numoutlets" : 1,
					"outlettype" : [ "" ],
					"patching_rect" : [ 805.075261082088446, 381.367937116290705, 245.0, 22.0 ],
					"presentation" : 1,
					"presentation_rect" : [ 75.548901437829386, 20.609437327124397, 245.0, 22.0 ]
				}

			}
 ],
		"lines" : [ 			{
				"patchline" : 				{
					"destination" : [ "obj-106", 0 ],
					"source" : [ "obj-1", 0 ]
				}

			}
, 			{
				"patchline" : 				{
					"destination" : [ "obj-2", 0 ],
					"source" : [ "obj-1", 1 ]
				}

			}
, 			{
				"patchline" : 				{
					"destination" : [ "obj-5", 0 ],
					"source" : [ "obj-10", 0 ]
				}

			}
, 			{
				"patchline" : 				{
					"destination" : [ "obj-101", 0 ],
					"source" : [ "obj-100", 1 ]
				}

			}
, 			{
				"patchline" : 				{
					"destination" : [ "obj-104", 0 ],
					"source" : [ "obj-105", 0 ]
				}

			}
, 			{
				"patchline" : 				{
					"destination" : [ "obj-9", 0 ],
					"source" : [ "obj-106", 0 ]
				}

			}
, 			{
				"patchline" : 				{
					"destination" : [ "obj-30", 0 ],
					"source" : [ "obj-112", 0 ]
				}

			}
, 			{
				"patchline" : 				{
					"destination" : [ "obj-272", 0 ],
					"source" : [ "obj-131", 0 ]
				}

			}
, 			{
				"patchline" : 				{
					"destination" : [ "obj-272", 0 ],
					"source" : [ "obj-132", 0 ]
				}

			}
, 			{
				"patchline" : 				{
					"destination" : [ "obj-112", 0 ],
					"source" : [ "obj-15", 0 ]
				}

			}
, 			{
				"patchline" : 				{
					"destination" : [ "obj-264", 1 ],
					"source" : [ "obj-17", 0 ]
				}

			}
, 			{
				"patchline" : 				{
					"destination" : [ "obj-264", 2 ],
					"source" : [ "obj-20", 0 ]
				}

			}
, 			{
				"patchline" : 				{
					"destination" : [ "obj-1", 0 ],
					"source" : [ "obj-22", 0 ]
				}

			}
, 			{
				"patchline" : 				{
					"destination" : [ "obj-276", 0 ],
					"source" : [ "obj-23", 0 ]
				}

			}
, 			{
				"patchline" : 				{
					"destination" : [ "obj-23", 0 ],
					"source" : [ "obj-24", 0 ]
				}

			}
, 			{
				"patchline" : 				{
					"destination" : [ "obj-263", 0 ],
					"source" : [ "obj-264", 0 ]
				}

			}
, 			{
				"patchline" : 				{
					"destination" : [ "obj-16", 0 ],
					"source" : [ "obj-272", 1 ]
				}

			}
, 			{
				"patchline" : 				{
					"destination" : [ "obj-131", 0 ],
					"source" : [ "obj-3", 0 ]
				}

			}
, 			{
				"patchline" : 				{
					"destination" : [ "obj-85", 0 ],
					"source" : [ "obj-30", 0 ]
				}

			}
, 			{
				"patchline" : 				{
					"destination" : [ "obj-46", 0 ],
					"source" : [ "obj-38", 0 ]
				}

			}
, 			{
				"patchline" : 				{
					"destination" : [ "obj-1", 0 ],
					"source" : [ "obj-4", 0 ]
				}

			}
, 			{
				"patchline" : 				{
					"destination" : [ "obj-30", 1 ],
					"source" : [ "obj-40", 0 ]
				}

			}
, 			{
				"patchline" : 				{
					"destination" : [ "obj-30", 0 ],
					"source" : [ "obj-46", 0 ]
				}

			}
, 			{
				"patchline" : 				{
					"destination" : [ "obj-1", 0 ],
					"source" : [ "obj-5", 0 ]
				}

			}
, 			{
				"patchline" : 				{
					"destination" : [ "obj-88", 0 ],
					"source" : [ "obj-6", 0 ]
				}

			}
, 			{
				"patchline" : 				{
					"destination" : [ "obj-276", 0 ],
					"source" : [ "obj-7", 0 ]
				}

			}
, 			{
				"patchline" : 				{
					"destination" : [ "obj-264", 0 ],
					"order" : 1,
					"source" : [ "obj-73", 0 ]
				}

			}
, 			{
				"patchline" : 				{
					"destination" : [ "obj-265", 0 ],
					"order" : 0,
					"source" : [ "obj-73", 0 ]
				}

			}
, 			{
				"patchline" : 				{
					"destination" : [ "obj-14", 0 ],
					"source" : [ "obj-8", 0 ]
				}

			}
, 			{
				"patchline" : 				{
					"destination" : [ "obj-88", 1 ],
					"source" : [ "obj-86", 0 ]
				}

			}
, 			{
				"patchline" : 				{
					"destination" : [ "obj-100", 0 ],
					"order" : 1,
					"source" : [ "obj-88", 0 ]
				}

			}
, 			{
				"patchline" : 				{
					"destination" : [ "obj-105", 0 ],
					"order" : 0,
					"source" : [ "obj-88", 0 ]
				}

			}
, 			{
				"patchline" : 				{
					"destination" : [ "obj-17", 2 ],
					"order" : 0,
					"source" : [ "obj-9", 9 ]
				}

			}
, 			{
				"patchline" : 				{
					"destination" : [ "obj-17", 1 ],
					"order" : 1,
					"source" : [ "obj-9", 9 ]
				}

			}
, 			{
				"patchline" : 				{
					"destination" : [ "obj-17", 0 ],
					"order" : 2,
					"source" : [ "obj-9", 9 ]
				}

			}
, 			{
				"patchline" : 				{
					"destination" : [ "obj-20", 3 ],
					"order" : 0,
					"source" : [ "obj-9", 8 ]
				}

			}
, 			{
				"patchline" : 				{
					"destination" : [ "obj-20", 2 ],
					"order" : 1,
					"source" : [ "obj-9", 8 ]
				}

			}
, 			{
				"patchline" : 				{
					"destination" : [ "obj-20", 1 ],
					"order" : 2,
					"source" : [ "obj-9", 8 ]
				}

			}
, 			{
				"patchline" : 				{
					"destination" : [ "obj-20", 0 ],
					"order" : 3,
					"source" : [ "obj-9", 8 ]
				}

			}
, 			{
				"patchline" : 				{
					"destination" : [ "obj-73", 2 ],
					"source" : [ "obj-9", 4 ]
				}

			}
, 			{
				"patchline" : 				{
					"destination" : [ "obj-73", 1 ],
					"source" : [ "obj-9", 3 ]
				}

			}
, 			{
				"patchline" : 				{
					"destination" : [ "obj-73", 0 ],
					"source" : [ "obj-9", 2 ]
				}

			}
, 			{
				"patchline" : 				{
					"destination" : [ "obj-8", 2 ],
					"source" : [ "obj-9", 7 ]
				}

			}
, 			{
				"patchline" : 				{
					"destination" : [ "obj-8", 1 ],
					"source" : [ "obj-9", 6 ]
				}

			}
, 			{
				"patchline" : 				{
					"destination" : [ "obj-8", 0 ],
					"source" : [ "obj-9", 5 ]
				}

			}
 ],
		"parameters" : 		{
			"obj-1::obj-108" : [ "hi-xyz", "hi-xyz", 0 ],
			"obj-1::obj-120" : [ "lo-xyz", "lo-xyz", 0 ],
			"obj-1::obj-13" : [ "squish-x-var", "squish-x-var", 0 ],
			"obj-1::obj-132" : [ "vel-x", "vel-x", 0 ],
			"obj-1::obj-134" : [ "vel-y", "vel-y", 0 ],
			"obj-1::obj-136" : [ "vel-z", "vel-z", 0 ],
			"obj-1::obj-18" : [ "squish-z", "squish-z", 0 ],
			"obj-1::obj-25" : [ "lo-x", "lo-x", 0 ],
			"obj-1::obj-26" : [ "lo-y", "lo-y", 0 ],
			"obj-1::obj-28" : [ "hi-x", "hi-x", 0 ],
			"obj-1::obj-29" : [ "hi-y", "hi-y", 0 ],
			"obj-1::obj-34" : [ "init-z-var", "init-z-var", 0 ],
			"obj-1::obj-35" : [ "init-y-var", "init-y-var", 0 ],
			"obj-1::obj-36" : [ "init-x-var", "init-x-var", 0 ],
			"obj-1::obj-38" : [ "init-z", "init-z", 0 ],
			"obj-1::obj-39" : [ "init-y", "init-y", 0 ],
			"obj-1::obj-40" : [ "init-x", "init-x", 0 ],
			"obj-1::obj-41" : [ "num-particles", "number", 0 ],
			"obj-1::obj-46" : [ "radius-all", "radius-all", 0 ],
			"obj-1::obj-59" : [ "gain-all", "gain-all", 0 ],
			"obj-1::obj-60" : [ "squish-y-var", "squish-y-var", 0 ],
			"obj-1::obj-61" : [ "squish-z-var", "squish-z-var", 0 ],
			"obj-1::obj-62" : [ "squish-x", "squish-x", 0 ],
			"obj-1::obj-63" : [ "squish-y", "squish-y", 0 ],
			"obj-1::obj-65" : [ "mode", "mode", 0 ],
			"obj-1::obj-82" : [ "emit-var", "emit-var", 0 ],
			"obj-1::obj-84" : [ "emit", "emit", 0 ],
			"obj-1::obj-89" : [ "life-var", "life-var", 0 ],
			"obj-1::obj-91" : [ "life", "life", 0 ],
			"parameterbanks" : 			{

			}
,
			"parameter_overrides" : 			{
				"obj-1::obj-46" : 				{
					"parameter_linknames" : 1
				}
,
				"obj-1::obj-59" : 				{
					"parameter_shortname" : "gain-all"
				}

			}
,
			"inherited_shortname" : 1
		}
,
		"dependency_cache" : [ 			{
				"name" : "OpenSoundControl.mxo",
				"type" : "iLaX"
			}
, 			{
				"name" : "o.accum.maxpat",
				"bootpath" : "~/Documents/Max 8/Packages/odot/patchers/namespace",
				"patcherrelativepath" : "../../../../../../Documents/Max 8/Packages/odot/patchers/namespace",
				"type" : "JSON",
				"implicit" : 1
			}
, 			{
				"name" : "o.display.mxo",
				"type" : "iLaX"
			}
, 			{
				"name" : "o.downcast.mxo",
				"type" : "iLaX"
			}
, 			{
				"name" : "o.expr.codebox.mxo",
				"type" : "iLaX"
			}
, 			{
				"name" : "o.pack.mxo",
				"type" : "iLaX"
			}
, 			{
				"name" : "o.select.mxo",
				"type" : "iLaX"
			}
, 			{
				"name" : "o.union.mxo",
				"type" : "iLaX"
			}
, 			{
				"name" : "system-module.maxpat",
				"bootpath" : "~/SYNC/PROJECTS/ZEAL/belief system/CODE/bs-commander",
				"patcherrelativepath" : ".",
				"type" : "JSON",
				"implicit" : 1
			}
 ],
		"autosave" : 0
	}

}
