#N canvas 0 38 864 1051 12;
#X msg 120 300 devices;
#X obj 210 670 netsend -u -b;
#X msg 460 580 connect 255.255.255.255 8000;
#X obj 210 370 mrpeach/slipdec 65536;
#X msg 265 305 close;
#X obj 210 340 comport 1 115200;
#X msg 211 305 open \$1;
#X obj 210 260 t f b;
#X obj 210 400 oscparse;
#X obj 210 425 list trim;
#X msg 200 200 1;
#X msg 128 203 3;
#X obj 210 460 route wind;
#X obj 210 489 route direction speed;
#X obj 280 530 oscformat wind speed;
#X obj 210 560 oscformat wind direction;
#X obj 464 547 loadbang;
#X obj 210 589 list prepend send;
#X obj 210 618 list trim;
#X connect 0 0 5 0;
#X connect 2 0 1 0;
#X connect 3 0 8 0;
#X connect 4 0 5 0;
#X connect 5 0 3 0;
#X connect 6 0 5 0;
#X connect 7 0 6 0;
#X connect 7 1 4 0;
#X connect 8 0 9 0;
#X connect 9 0 12 0;
#X connect 10 0 7 0;
#X connect 11 0 7 0;
#X connect 12 0 13 0;
#X connect 13 0 15 0;
#X connect 13 1 14 0;
#X connect 14 0 17 0;
#X connect 15 0 17 0;
#X connect 16 0 2 0;
#X connect 17 0 18 0;
#X connect 18 0 1 0;
