#N canvas 864 38 864 1051 12;
#X msg 220 200 devices;
#X obj 100 635 netsend -u -b;
#X msg 110 595 connect 255.255.255.255 8000;
#X obj 99 265 mrpeach/slipdec 65536;
#X msg 170 200 close;
#X obj 99 235 comport 1 115200;
#X msg 100 200 open \$1;
#X obj 99 155 t f b;
#X obj 99 295 oscparse;
#X obj 100 330 list trim;
#X msg 140 100 1;
#X obj 100 365 route wind;
#X obj 110 565 loadbang;
#X obj 100 504 list prepend send;
#X obj 100 533 list trim;
#X msg 100 100 2;
#X obj 130 405 unpack;
#X floatatom 130 445 5 0 0 0 - - -, f 5;
#X floatatom 180 445 5 0 0 0 - - -, f 5;
#X obj 100 475 oscformat wind;
#X connect 0 0 5 0;
#X connect 2 0 1 0;
#X connect 3 0 8 0;
#X connect 4 0 5 0;
#X connect 5 0 3 0;
#X connect 6 0 5 0;
#X connect 7 0 6 0;
#X connect 7 1 4 0;
#X connect 8 0 9 0;
#X connect 9 0 11 0;
#X connect 10 0 7 0;
#X connect 11 0 16 0;
#X connect 11 0 19 0;
#X connect 12 0 2 0;
#X connect 13 0 14 0;
#X connect 14 0 1 0;
#X connect 15 0 7 0;
#X connect 16 0 17 0;
#X connect 16 1 18 0;
#X connect 19 0 13 0;
