#N canvas 436 154 742 499 10;
#X obj 22 62 cnv 15 115 75 empty empty empty 20 12 0 14 #c6ffd2 #404040
0;
#N canvas 776 188 450 323 os_check 0;
#X obj 70 54 operating_system;
#X obj 70 21 loadbang;
#X symbolatom 70 86 10 0 0 0 - - -, f 10;
#X obj 70 110 select linux windows macos;
#X msg 121 140 10;
#X msg 172 141 1;
#X msg 70 142 1;
#X obj 70 214 outlet;
#X connect 0 0 2 0;
#X connect 1 0 0 0;
#X connect 2 0 3 0;
#X connect 3 0 6 0;
#X connect 3 1 4 0;
#X connect 3 2 5 0;
#X connect 4 0 7 0;
#X connect 5 0 7 0;
#X connect 6 0 7 0;
#X restore 70 20 pd os_check;
#X text 1272 1112 comment;
#X obj 30 110 nbx 3 14 -1e+37 1e+37 0 0 empty empty comport 40 5 0
10 #fcfcfc #0080ff #000000 10 256 3;
#X obj 30 20 inlet;
#X text 30 70 👆 sets custom port if required, f 16;
#X obj 30 260 mrpeach/slipdec 65536;
#X msg 85 195 close;
#X obj 30 230 comport 1 115200;
#X msg 31 195 open \$1;
#X obj 30 150 t f b;
#X obj 30 290 oscparse;
#X obj 30 315 list trim;
#X obj 30 350 outlet;
#X connect 1 0 3 0;
#X connect 3 0 10 0;
#X connect 4 0 3 0;
#X connect 6 0 11 0;
#X connect 7 0 8 0;
#X connect 8 0 6 0;
#X connect 9 0 8 0;
#X connect 10 0 9 0;
#X connect 10 1 7 0;
#X connect 11 0 12 0;
#X connect 12 0 13 0;
#X coords 0 -1 1 1 120 80 2 20 60;
